:FULLY-SPECIFIED
:FORCE-ALL-JOINTS-BE-3DOF
:DEGREES
2854
root -6.07942 13.2709 -28.797 1241.77 -66.6765 -160.32
lfemur -64.9869 45.2743 -6.11313
ltibia 76.4614 0 0
lfoot -4.48452 -5.97033 0
ltoes -28.4396 0 0
rfemur -30.9691 -19.2874 21.7644
rtibia 88.3782 0 0
rfoot -40.953 -28.1496 0
rtoes -13.761 0 0
lowerback 15.336 5.69695 0.60102
upperback -4.44315 7.99089 1.57804
thorax -13.7281 3.73613 -0.730106
lowerneck -2.48884 9.60748 2.18479
upperneck 9.08696 12.5135 2.04468
head 3.36817 6.32041 0.755673
lclavicle -3.35096e-14 -1.91341e-14 0
lhumerus 5.06346 12.2153 84.2654
lradius 93.6233 0 0
lwrist -19.1408 0 0
lhand -39.6001 388.445 0
lfingers 7.12502 0 0
lthumb -12.5823 -661.954 0
rclavicle -3.35096e-14 -1.91341e-14 0
rhumerus -59.139 50.8331 -111.574
rradius 113.635 0 0
rwrist -84.0759 0 0
rhand 7.68869 -386.367 0
rfingers 7.12502 0 0
rthumb 32.9309 306.618 0
2855
root -6.08047 13.2681 -28.7961 1241.75 -66.6771 -160.281
lfemur -65.0094 45.2654 -6.10935
ltibia 76.473 0 0
lfoot -4.50459 -5.96895 0
ltoes -28.4889 0 0
rfemur -30.9852 -19.2808 21.7821
rtibia 88.3855 0 0
rfoot -40.9369 -28.1777 0
rtoes -13.7751 0 0
lowerback 15.3471 5.6939 0.618871
upperback -4.44669 7.99121 1.58089
thorax -13.7369 3.7345 -0.738151
lowerneck -2.49215 9.60829 2.18523
upperneck 9.08603 12.5145 2.04521
head 3.36847 6.32095 0.755973
lclavicle -3.31041e-14 -1.88992e-14 0
lhumerus 5.06479 12.2174 84.2649
lradius 93.6187 0 0
lwrist -19.1363 0 0
lhand -39.5989 388.452 0
lfingers 7.12502 0 0
lthumb -12.5811 -661.947 0
rclavicle -3.31041e-14 -1.88992e-14 0
rhumerus -59.1368 50.8415 -111.57
rradius 113.634 0 0
rwrist -84.0629 0 0
rhand 7.68633 -386.361 0
rfingers 7.12502 0 0
rthumb 32.9287 306.625 0
2856
root -6.08153 13.2653 -28.7952 1241.71 -66.679 -160.236
lfemur -65.0377 45.2559 -6.10529
ltibia 76.4895 0 0
lfoot -4.52715 -5.96967 0
ltoes -28.5406 0 0
rfemur -31.0036 -19.2736 21.8025
rtibia 88.3964 0 0
rfoot -40.9209 -28.2113 0
rtoes -13.7902 0 0
lowerback 15.3601 5.69039 0.639264
upperback -4.45068 7.99155 1.58409
thorax -13.747 3.73262 -0.747408
lowerneck -2.49588 9.60918 2.18574
upperneck 9.08558 12.5155 2.04587
head 3.36902 6.32154 0.756353
lclavicle -3.26989e-14 -1.86555e-14 0
lhumerus 5.06811 12.2204 84.2647
lradius 93.6129 0 0
lwrist -19.1311 0 0
lhand -39.5974 388.46 0
lfingers 7.12502 0 0
lthumb -12.5797 -661.939 0
rclavicle -3.26989e-14 -1.86555e-14 0
rhumerus -59.135 50.8516 -111.567
rradius 113.632 0 0
rwrist -84.0478 0 0
rhand 7.68556 -386.353 0
rfingers 7.12502 0 0
rthumb 32.9279 306.632 0
2857
root -6.08258 13.2625 -28.7944 1241.67 -66.6822 -160.185
lfemur -65.0724 45.2456 -6.10095
ltibia 76.5112 0 0
lfoot -4.55238 -5.97277 0
ltoes -28.5948 0 0
rfemur -31.0244 -19.2658 21.8258
rtibia 88.4112 0 0
rfoot -40.9054 -28.2508 0
rtoes -13.8065 0 0
lowerback 15.3749 5.6864 0.662392
upperback -4.45514 7.9919 1.58766
thorax -13.7585 3.73048 -0.757972
lowerneck -2.50004 9.61017 2.18634
upperneck 9.0857 12.5167 2.04669
head 3.36983 6.32218 0.756821
lclavicle -3.22971e-14 -1.84034e-14 0
lhumerus 5.07367 12.2243 84.2648
lradius 93.6055 0 0
lwrist -19.1251 0 0
lhand -39.5957 388.469 0
lfingers 7.12502 0 0
lthumb -12.578 -661.93 0
rclavicle -3.22971e-14 -1.84034e-14 0
rhumerus -59.1337 50.8635 -111.563
rradius 113.63 0 0
rwrist -84.0307 0 0
rhand 7.68658 -386.345 0
rfingers 7.12502 0 0
rthumb 32.9289 306.64 0
2858
root -6.08364 13.2597 -28.7935 1241.63 -66.6868 -160.127
lfemur -65.114 45.2346 -6.09631
ltibia 76.5387 0 0
lfoot -4.58043 -5.97853 0
ltoes -28.6513 0 0
rfemur -31.0478 -19.2572 21.8524
rtibia 88.4303 0 0
rfoot -40.8903 -28.2966 0
rtoes -13.8239 0 0
lowerback 15.3917 5.68188 0.688444
upperback -4.46013 7.99226 1.59162
thorax -13.7715 3.72804 -0.769939
lowerneck -2.50466 9.61127 2.18703
upperneck 9.08643 12.5179 2.04768
head 3.37095 6.32288 0.757387
lclavicle -3.19015e-14 -1.81436e-14 0
lhumerus 5.08169 12.2292 84.2652
lradius 93.5964 0 0
lwrist -19.1184 0 0
lhand -39.5937 388.48 0
lfingers 7.12502 0 0
lthumb -12.5761 -661.919 0
rclavicle -3.19015e-14 -1.81436e-14 0
rhumerus -59.133 50.8775 -111.561
rradius 113.627 0 0
rwrist -84.0113 0 0
rhand 7.68962 -386.336 0
rfingers 7.12502 0 0
rthumb 32.9318 306.65 0
2859
root -6.0847 13.2569 -28.7926 1241.58 -66.693 -160.061
lfemur -65.163 45.2228 -6.09137
ltibia 76.5725 0 0
lfoot -4.61148 -5.98721 0
ltoes -28.71 0 0
rfemur -31.0739 -19.248 21.8823
rtibia 88.4542 0 0
rfoot -40.8759 -28.3493 0
rtoes -13.8425 0 0
lowerback 15.4107 5.67681 0.717613
upperback -4.46565 7.99263 1.59601
thorax -13.786 3.7253 -0.783402
lowerneck -2.50977 9.61248 2.18782
upperneck 9.08786 12.5193 2.04885
head 3.37239 6.32363 0.758057
lclavicle -3.1515e-14 -1.78766e-14 0
lhumerus 5.09243 12.2352 84.2661
lradius 93.5856 0 0
lwrist -19.1107 0 0
lhand -39.5915 388.492 0
lfingers 7.12502 0 0
lthumb -12.5739 -661.907 0
rclavicle -3.1515e-14 -1.78766e-14 0
rhumerus -59.133 50.8937 -111.558
rradius 113.624 0 0
rwrist -83.9895 0 0
rhand 7.69488 -386.326 0
rfingers 7.12502 0 0
rthumb 32.9368 306.661 0
